<svg xmlns="http://www.w3.org/2000/svg" viewBox="0 0 330.48 147.62"><defs><style>.cls-1{isolation:isolate;}.cls-2,.cls-5{fill:#ef4123;}.cls-2{opacity:0.6;mix-blend-mode:multiply;}.cls-10,.cls-3,.cls-4,.cls-8{fill:none;stroke:#a7a9ac;}.cls-4{stroke-width:0.75px;}.cls-5{font-size:11.43px;font-family:MyriadPro-Bold, Myriad Pro;font-weight:700;}.cls-6{letter-spacing:-0.07em;}.cls-7{letter-spacing:0em;}.cls-8{stroke-miterlimit:10;}.cls-9{fill:#a7a9ac;}.cls-10{stroke-width:0.5px;}.cls-11{letter-spacing:0.01em;}.cls-12{letter-spacing:-0.06em;}.cls-13{letter-spacing:-0.05em;}.cls-14{letter-spacing:0.01em;}.cls-15{letter-spacing:-0.08em;}.cls-16{letter-spacing:0em;}</style></defs><title>topofscrew_blank</title><g class="cls-1"><g id="Layer_2" data-name="Layer 2"><g id="Layer_2-2" data-name="Layer 2"><path class="cls-2" d="M148.11,3.57c2.15,0,1.54,2.9,3.85,4.12s4.09-1,5.27.91-1.4,2.93-1.4,5.81,2.49,3.79,1.33,5.76S154,20,151.82,21.29c-1.91,1.16-1.43,3.93-3.71,4s-1.63-2.84-3.85-4S140,22,139,20.15s1.24-2.95,1.33-5.72-2.51-4-1.33-5.74,3.3.09,5.27-1S146,3.6,148.11,3.57Z"/><ellipse class="cls-3" cx="148.13" cy="14.44" rx="13.8" ry="13.94"/><path class="cls-4" d="M148.11,3.57c2.15,0,1.54,2.9,3.85,4.12s4.09-1,5.27.91-1.4,2.93-1.4,5.81,2.49,3.79,1.33,5.76S154,20,151.82,21.29c-1.91,1.16-1.43,3.93-3.71,4s-1.63-2.84-3.85-4S140,22,139,20.15s1.24-2.95,1.33-5.72-2.51-4-1.33-5.74,3.3.09,5.27-1S146,3.6,148.11,3.57Z"/><text class="cls-5" transform="translate(114.93 51.19)">S<tspan class="cls-6" x="6.17" y="0">T</tspan><tspan class="cls-7" x="11.62" y="0">AR RECESS</tspan></text><path class="cls-8" d="M303.62,7.9c.38-.38.77-.74,1.16-1.06l.1-.07"/><path class="cls-9" d="M300.34,13.18a13.67,13.67,0,0,1-.26-1.5c.18-.3.38-.61.59-.93s.44-.64.67-.95l.76.57q-.33.44-.64.91t-.71,1.12Z"/><path class="cls-9" d="M299.43,15.11l-1.07,1.23L298,15.9c.14-.35.79-1.84,1-2.2l1.2-.23-.34.64C299.71,14.44,299.57,14.78,299.43,15.11Z"/><path class="cls-9" d="M300.92,23.54a3.22,3.22,0,0,1-1.83-.53c-1.41-.95-1.9-3.07-1.32-5.78.08-.35.31-1.4.31-1.4l.63,1.61c-.49,2.32-.16,4.06.91,4.78s2.47.42,4.18-.59a17.32,17.32,0,0,0,5.25-5.24,17.31,17.31,0,0,0,2.87-6.84c.29-2-.08-3.46-1-4.1S308.5,5,306.79,6l-.48-.82c2-1.18,3.85-1.36,5.12-.51s1.79,2.65,1.44,5a18.28,18.28,0,0,1-3,7.23,18.3,18.3,0,0,1-5.56,5.52A6.82,6.82,0,0,1,300.92,23.54Z"/><path class="cls-3" d="M308.94,4.68l8.36-.91a3.53,3.53,0,0,1,3.9,3.46l.14,7.56c0,2.05-1.39,3.42-3.88,4-3.85.91-15.28,4.08-15.28,4.08"/><path class="cls-3" d="M321.25,7.34l6.46-1.55c1.23-.3,2.25.29,2.28,1.29h0a2.71,2.71,0,0,1-2.18,2.36L321.2,11"/><circle class="cls-10" cx="305.58" cy="6.02" r="1.01"/><circle class="cls-10" cx="302.72" cy="8.99" r="1.37"/><circle class="cls-10" cx="304.64" cy="16.32" r="1.06"/><circle class="cls-10" cx="281.58" cy="27.85" r="1.06"/><circle class="cls-10" cx="280.07" cy="35.73" r="1.06"/><circle class="cls-10" cx="281.32" cy="38" r="1.06"/><circle class="cls-10" cx="292.93" cy="28.32" r="1.06"/><circle class="cls-10" cx="285.47" cy="34.37" r="0.86"/><circle class="cls-10" cx="277.22" cy="42.78" r="0.86" transform="translate(101.56 261.47) rotate(-60)"/><circle class="cls-10" cx="278.59" cy="46.43" r="1.03" transform="translate(99.09 264.49) rotate(-60)"/><circle class="cls-10" cx="292.23" cy="33.35" r="1.06"/><circle class="cls-10" cx="287.81" cy="36.7" r="1.06"/><circle class="cls-10" cx="296.79" cy="15.83" r="1.06"/><circle class="cls-10" cx="300.29" cy="16.57" r="1.89"/><ellipse class="cls-10" cx="293.36" cy="13.49" rx="1.89" ry="1.54"/><circle class="cls-10" cx="309.43" cy="7.49" r="1.18"/><path class="cls-10" d="M305.16,9.57c-.27.43-.55.51-.53.87a1.18,1.18,0,0,0,1.82.91,1.92,1.92,0,0,0,.68-1c.11-.31.19-.71-.05-.94S305.9,8.39,305.16,9.57Z"/><path class="cls-10" d="M307.22,14.08c-.27.43-.55.51-.53.87a1.18,1.18,0,0,0,1.82.91,1.92,1.92,0,0,0,.68-1c.11-.31.19-.71-.05-.94S308,12.91,307.22,14.08Z"/><path class="cls-10" d="M296.43,23.12c-.26.42-.57.6-.56,1a1,1,0,0,0,.68.83,2.64,2.64,0,0,0,1.13.09.85.85,0,0,0,.53-.16.65.65,0,0,0,.15-.23,1.3,1.3,0,0,0-.77-1.74S296.69,22.7,296.43,23.12Z"/><path class="cls-10" d="M281.07,40.27c-.26.42-.57.6-.56,1a1,1,0,0,0,.68.83,2.64,2.64,0,0,0,1.13.09.85.85,0,0,0,.53-.16.65.65,0,0,0,.15-.23,1.3,1.3,0,0,0-.77-1.74S281.34,39.86,281.07,40.27Z"/><path class="cls-10" d="M293.9,20.76c-.3.1-.65.27-.67.59a.69.69,0,0,0,.4.59,2.68,2.68,0,0,0,1,.3,11.51,11.51,0,0,0,2,0,2.59,2.59,0,0,0,.82-.13.89.89,0,0,0,.56-.57.63.63,0,0,0-.35-.66C296.88,20.42,296.78,19.82,293.9,20.76Z"/><path class="cls-10" d="M296.12,25.53c.32-.06.56.36.6.68.06.48-.31,1-.12,1.42.12.29.46.51.41.82a.54.54,0,0,1-.35.38,1.35,1.35,0,0,1-1.44-.39,1.89,1.89,0,0,1-.43-1.84.89.89,0,0,1,.53-.57C295.54,25.95,295.89,25.57,296.12,25.53Z"/><path class="cls-10" d="M298.12,29.25c-.49,0-.92.34-1.4.4a1.37,1.37,0,0,0-.41.08,1,1,0,0,0-.38.34,1.22,1.22,0,0,0-.29.76,1.08,1.08,0,0,0,.57.82,2.51,2.51,0,0,0,1.44.3,7.49,7.49,0,0,0,1.47-.28.7.7,0,0,0,.38-.19.61.61,0,0,0,.1-.23c.13-.49.28-1.11-.06-1.49A2.39,2.39,0,0,0,298.12,29.25Z"/><path class="cls-10" d="M275.85,38.31c-.49,0-.92.34-1.4.4a1.37,1.37,0,0,0-.41.08,1,1,0,0,0-.38.34,1.22,1.22,0,0,0-.29.76,1.08,1.08,0,0,0,.57.82,2.51,2.51,0,0,0,1.44.3,7.49,7.49,0,0,0,1.47-.28.7.7,0,0,0,.38-.19.61.61,0,0,0,.1-.23c.13-.49.28-1.11-.06-1.49A2.39,2.39,0,0,0,275.85,38.31Z"/><path class="cls-10" d="M300.75,20.32c-.46.08-.76.54-1.14.82a.58.58,0,0,0-.16.15.51.51,0,0,0-.06.19,1.12,1.12,0,0,0,.15.86,1.34,1.34,0,0,0,1,.41,5.51,5.51,0,0,0,.85,0,1.58,1.58,0,0,0,.65-.18,1.11,1.11,0,0,0,.5-.82,1.15,1.15,0,0,0-.19-1A2.57,2.57,0,0,0,300.75,20.32Z"/><path class="cls-10" d="M298.24,12c-.16.29-.6.33-.76.62a.68.68,0,0,0-.07.34.85.85,0,0,0,.35.72,1.17,1.17,0,0,0,.61.11,3.59,3.59,0,0,0,1.3-.16,1,1,0,0,0,.52-.41,1.09,1.09,0,0,0,.11-.46,1.57,1.57,0,0,0-.32-1.16.8.8,0,0,0-1.11-.11Z"/><path class="cls-10" d="M289.58,30.61c-.16.29-.6.33-.76.62a.68.68,0,0,0-.07.34.85.85,0,0,0,.35.72,1.17,1.17,0,0,0,.61.11,3.59,3.59,0,0,0,1.3-.16,1,1,0,0,0,.52-.41,1.09,1.09,0,0,0,.11-.46,1.57,1.57,0,0,0-.32-1.16.8.8,0,0,0-1.11-.11Z"/><path class="cls-10" d="M284.79,32.08c0-.33.32-.61.29-.94a.68.68,0,0,0-.13-.32.85.85,0,0,0-.69-.41,1.17,1.17,0,0,0-.58.25,3.59,3.59,0,0,0-1,.85,1,1,0,0,0-.21.63,1.09,1.09,0,0,0,.16.44,1.57,1.57,0,0,0,.91.79.8.8,0,0,0,1-.52Z"/><path class="cls-10" d="M287.82,21.09c-.16.29-.6.33-.76.62a.68.68,0,0,0-.07.34.85.85,0,0,0,.35.72,1.17,1.17,0,0,0,.61.11,3.59,3.59,0,0,0,1.3-.16,1,1,0,0,0,.52-.41,1.09,1.09,0,0,0,.11-.46,1.57,1.57,0,0,0-.32-1.16.8.8,0,0,0-1.11-.11Z"/><path class="cls-10" d="M283,21.26c.11.31-.16.67-.05,1a.68.68,0,0,0,.21.28.85.85,0,0,0,.76.23,1.17,1.17,0,0,0,.5-.38,3.59,3.59,0,0,0,.76-1.07,1,1,0,0,0,0-.67,1.09,1.09,0,0,0-.27-.39,1.57,1.57,0,0,0-1.08-.54.8.8,0,0,0-.83.74Z"/><path class="cls-10" d="M309.29,10.49a1.7,1.7,0,0,0-1.15.08,1.2,1.2,0,0,0-.39.42,1.58,1.58,0,0,0-.26.51,1,1,0,0,0,.37.94,1.58,1.58,0,0,0,1,.3,1.48,1.48,0,0,0,1-.37.86.86,0,0,0,.18-1C309.91,11.1,310,10.64,309.29,10.49Z"/><path class="cls-10" d="M288.65,28a1.7,1.7,0,0,0-1.15.08,1.2,1.2,0,0,0-.39.42,1.58,1.58,0,0,0-.26.51,1,1,0,0,0,.37.94,1.58,1.58,0,0,0,1,.3,1.48,1.48,0,0,0,1-.37.86.86,0,0,0,.18-1C289.28,28.62,289.34,28.17,288.65,28Z"/><path class="cls-10" d="M290.7,16.41c-.54.52-1.05.49-1.41.7a1.48,1.48,0,0,0-.66.6,1.44,1.44,0,0,0-.05.79q0,.3.1.59a.49.49,0,0,0,.12.27.5.5,0,0,0,.44.06,3.73,3.73,0,0,0,1.53-.56c.44-.32,1-.85,1-1.39C291.72,17.48,291.24,15.89,290.7,16.41Z"/><path class="cls-10" d="M290.86,22a1.11,1.11,0,0,0-.18.9,1,1,0,0,0,.59.7,1.46,1.46,0,0,0,.77.08.7.7,0,0,0,.3-.09.62.62,0,0,0,.17-.19c.33-.51.4-1.42-.14-1.68A1.65,1.65,0,0,0,290.86,22Z"/><path class="cls-10" d="M275.08,31.8a1.11,1.11,0,0,0-.18.9,1,1,0,0,0,.59.7,1.46,1.46,0,0,0,.77.08.7.7,0,0,0,.3-.09.62.62,0,0,0,.17-.19c.33-.51.4-1.42-.14-1.68A1.65,1.65,0,0,0,275.08,31.8Z"/><path class="cls-10" d="M289.87,38.47a1.23,1.23,0,0,0-.2,1,1.16,1.16,0,0,0,.65.78,1.62,1.62,0,0,0,.86.08.78.78,0,0,0,.33-.1.69.69,0,0,0,.19-.21c.37-.56.45-1.58-.16-1.86A1.83,1.83,0,0,0,289.87,38.47Z"/><path class="cls-10" d="M285.11,26a1.11,1.11,0,0,0-.18.9,1,1,0,0,0,.59.7,1.46,1.46,0,0,0,.77.08.7.7,0,0,0,.3-.09.62.62,0,0,0,.17-.19c.33-.51.4-1.42-.14-1.68A1.65,1.65,0,0,0,285.11,26Z"/><path class="cls-10" d="M276.24,34.92a1.11,1.11,0,0,0-.18.9,1,1,0,0,0,.59.7,1.46,1.46,0,0,0,.77.08.7.7,0,0,0,.3-.09.62.62,0,0,0,.17-.19c.33-.51.4-1.42-.14-1.68A1.65,1.65,0,0,0,276.24,34.92Z"/><path class="cls-10" d="M298.85,8.39c-.23-.14-.33,0-.5,0s-.5,0-.6.25a3,3,0,0,0-.09.34c-.08.22-.33.33-.47.53a.79.79,0,0,0,.23,1,1.65,1.65,0,0,0,1.1.27,3.83,3.83,0,0,0,.61-.08.49.49,0,0,0,.24-.1.46.46,0,0,0,.1-.18,1.81,1.81,0,0,0,0-1.61A2.09,2.09,0,0,0,298.85,8.39Z"/><text class="cls-5" transform="translate(251.3 66.43)">MECHANI<tspan class="cls-11" x="49.1" y="0">C</tspan><tspan class="cls-7" x="56.02" y="0">AL </tspan><tspan x="2.66" y="13.72">GA</tspan><tspan class="cls-12" x="17.95" y="13.72">L</tspan><tspan class="cls-13" x="23.05" y="13.72">V</tspan><tspan x="29.71" y="13.72">ANIZED</tspan></text><text class="cls-5" transform="translate(0 144.77)">F<tspan class="cls-14" x="6.02" y="0">L</tspan><tspan class="cls-15" x="11.94" y="0">A</tspan><tspan class="cls-16" x="18.49" y="0">T HEAD</tspan></text><polygon class="cls-2" points="12.38 92.4 26.8 92.4 14.86 94.29 13.57 95.96 16.48 97.75 23.98 106.04 24.07 122.51 19.92 122.5 19.92 106.81 11.91 106.86 11.91 92.9 12.38 92.4"/><polygon class="cls-2" points="44.07 92.39 29.66 92.39 36.66 93.5 41.11 94.25 42.9 95.88 40.4 97.63 32.02 106.5 32.03 122.51 36.52 122.5 36.52 106.89 44.53 106.73 44.53 92.9 44.07 92.39"/><polygon class="cls-3" points="4.28 92.9 11.91 92.9 11.91 106.84 19.92 106.81 19.92 122 4.16 122 4.28 92.9"/><polygon class="cls-3" points="52.2 92.9 44.57 92.9 44.57 106.79 36.56 106.79 36.56 122 52.32 122 52.2 92.9"/><polyline class="cls-3" points="24.29 106.36 24.19 121.98 32.08 121.98 32.08 106.37"/><path class="cls-3" d="M28.26,92.8c-8.08,0-14.63,1.28-14.63,2.86s6.55,2.86,14.63,2.86,14.63-1.28,14.63-2.86S36.34,92.8,28.26,92.8Zm0,3.86c-5.28,0-9.56-.5-9.56-1.12s4.28-1.12,9.56-1.12,9.56.5,9.56,1.12S33.54,96.66,28.26,96.66Z"/><path class="cls-3" d="M41,97.09,32.43,106a8.47,8.47,0,0,1-4.17,1,8.42,8.42,0,0,1-4.21-1L15.93,97.2"/></g></g></g></svg>